Coordinates
version=1
nRows=17
nColumns=36
inDegrees=yes

Units are S.I. units (second, meters, Newtons, ...)
If the header above contains a line with 'inDegrees', this indicates whether rotational values are in degrees (yes) or radians (no).

endheader
time	pelvis_tilt	pelvis_list	pelvis_rotation	pelvis_tx	pelvis_ty	pelvis_tz	hip_flexion_r	hip_adduction_r	hip_rotation_r	knee_angle_r	knee_angle_r_beta	ankle_angle_r	subtalar_angle_r	mtp_angle_r	hip_flexion_l	hip_adduction_l	hip_rotation_l	knee_angle_l	knee_angle_l_beta	ankle_angle_l	subtalar_angle_l	mtp_angle_l	lumbar_extension	lumbar_bending	lumbar_rotation	arm_flex_r	arm_add_r	arm_rot_r	elbow_flex_r	pro_sup_r	arm_flex_l	arm_add_l	arm_rot_l	elbow_flex_l	pro_sup_l
      5.03333330	    -41.37051644	      1.08770670	      2.94718272	      0.24640457	      0.50618716	     -0.00637057	    117.29407883	    -11.03337994	      8.25053513	    106.67287380	      1.86179287	     32.92625271	    -15.62397985	     -7.49999987	    119.73454676	    -14.84015572	      4.61914932	    107.04903587	      1.86835814	     28.92352951	     -6.96526985	     -7.49999987	    -29.65816504	     -3.55229445	     -3.44137102	    133.34721900	     -1.46834988	     12.62624369	    101.12468306	     88.76026236	    127.81463328	      6.36327249	     16.88756155	     95.82115829	     83.08361159
      5.05000000	    -40.66404925	      1.22100612	      2.84598605	      0.25151855	      0.50429429	     -0.01602546	    117.34646832	    -11.06629121	      8.67977567	    107.80442453	      1.88154216	     32.90483710	    -15.65179579	     -7.49999987	    119.77868855	    -14.92085438	      4.53860746	    108.27471578	      1.88975029	     29.34403659	     -6.78173377	     -7.49999987	    -30.49142105	     -3.46237638	     -3.14205770	    132.32302266	     -1.85033563	     12.53994671	    102.47304705	     94.64897064	    126.36990410	      6.52223177	     17.89585401	     97.20481943	     86.35204325
      5.06666670	    -40.21209860	      1.12625499	      2.88747039	      0.24582054	      0.49953067	     -0.00617518	    117.30142127	    -10.91936007	      8.75436966	    108.57306489	      1.89495746	     32.83041511	    -15.98531953	     -7.49999987	    119.80836161	    -14.99248006	      4.78033648	    108.83447940	      1.89952001	     29.40846282	     -6.89705980	     -7.49999987	    -31.42736759	     -3.56162393	     -3.41105600	    131.96439816	     -1.04864857	     12.54061312	    102.74718404	     93.20169417	    126.11019098	      6.33538333	     19.47173985	     97.50580018	     85.61233759
      5.08333330	    -39.52758924	      0.92320869	      3.04246648	      0.23642383	      0.49646666	      0.00053023	    117.22311875	    -10.59764762	      8.63076846	    108.95195424	      1.90157033	     32.42724132	    -16.85922206	     -7.49999987	    119.83321403	    -14.92342426	      5.21470941	    108.92877804	      1.90116583	     28.53213475	     -6.99501468	     -7.49999987	    -32.72467244	     -3.53511941	     -3.71567550	    132.48386103	     -0.21055585	     12.66282545	    101.25933922	     93.28907934	    127.23541957	      5.95886944	     20.46790596	     95.63898385	     85.75637014
      5.10000000	    -38.85736529	      0.75143062	      3.18452288	      0.23263528	      0.49542601	      0.00326575	    117.11092545	    -10.20224416	      8.38898147	    109.21231967	      1.90611456	     31.90145343	    -17.84628317	     -7.49999987	    119.84917756	    -14.96046384	      5.64772976	    108.82000615	      1.89926740	     27.60670032	     -7.36074742	     -7.49999987	    -34.10474614	     -3.70531342	     -4.45186947	    132.93177882	      0.67145511	     12.00337633	     99.75021829	     85.71310839	    129.03900353	      5.31663896	     22.45736133	     93.75923395	     79.29994873
      5.11666670	    -38.61590791	      0.59964339	      3.28993159	      0.23403555	      0.49729542	      0.00227878	    117.10313086	     -9.85349580	      8.13737954	    109.21417783	      1.90614699	     31.74729605	    -18.12140345	     -7.49999987	    119.85820548	    -15.06099135	      5.82281821	    108.37300559	      1.89146577	     26.97883679	     -7.18728716	     -7.49999987	    -34.56477221	     -3.67388306	     -4.42181517	    132.64816404	      0.81544657	     12.08186370	     99.37741934	     85.84931814	    129.08921389	      5.46579130	     22.65583335	     93.47036543	     79.41126997
      5.13333330	    -38.33941729	      0.41726407	      3.06878631	      0.23876738	      0.49767815	     -0.00118831	    116.84866124	     -9.47728830	      7.92888188	    109.02916352	      1.90291788	     30.94979289	    -19.22807601	     -7.49999987	    119.85587722	    -15.27454035	      6.06249021	    108.25708840	      1.88944263	     26.03993013	     -7.82972376	     -7.49999987	    -34.56671344	     -3.59819382	     -4.47682934	    131.57602534	      1.54734910	     11.02815430	     99.29897468	     94.85121381	    128.84166256	      5.28771424	     23.34058942	     92.61645582	     86.09984533
      5.15000000	    -38.45057220	      0.22860827	      3.23038846	      0.23354773	      0.50301140	      0.00170706	    116.63829178	     -9.37970963	      7.87708653	    108.47556221	      1.89325572	     30.08613302	    -19.84412517	     -7.49999987	    119.85268205	    -15.12361142	      5.94975571	    107.51655227	      1.87651784	     25.22870498	     -8.14976223	     -7.49999987	    -34.40027953	     -3.40943533	     -4.51914304	    131.07869703	      1.98226453	     10.40732355	     98.77966517	     94.57910542	    128.43151961	      5.33214790	     23.55075599	     92.15316618	     86.15958102
      5.16666670	    -38.66115803	     -0.02865332	      3.38961792	      0.23333142	      0.50493393	      0.00118095	    116.52876476	     -9.39354567	      7.79781046	    108.08134008	      1.88637524	     29.31103497	    -20.48568974	     -7.49999987	    119.84557860	    -14.89373080	      5.99230495	    106.85774507	      1.86501948	     24.24768583	     -8.70339023	     -7.49999987	    -33.83223497	     -3.10338564	     -4.63989608	    131.05616630	      2.22151894	     10.32216267	     98.06111083	     93.11547132	    128.19173221	      5.18321619	     23.92778263	     91.27598490	     85.19371958
      5.18333330	    -39.21239710	     -0.20584770	      3.50044628	      0.23271007	      0.51327349	      0.00171369	    116.32417314	     -9.32115858	      7.56380470	    106.97868381	      1.86713026	     28.47162059	    -20.93500468	     -7.49999987	    119.82197524	    -14.76435006	      5.80264245	    105.72886851	      1.84531687	     23.26897220	     -9.22725176	     -7.49999987	    -32.59735635	     -2.90025957	     -4.50292869	    130.12738962	      2.27371047	     10.42616758	     97.24222113	     93.41650443	    127.31250561	      4.80949034	     24.35823395	     90.66020117	     86.02088590
      5.20000000	    -40.56563985	     -0.36264611	      3.25964203	      0.24114545	      0.52623865	     -0.00417594	    116.19869815	     -9.31836036	      7.04620873	    105.23790688	      1.83674797	     27.69140677	    -21.16902647	     -7.49999987	    119.76854219	    -14.68855157	      5.33383966	    104.10646469	      1.81700058	     22.78259062	     -9.86017465	     -7.49999987	    -30.07471737	     -2.56564248	     -4.19737242	    126.67338621	      2.13198157	     11.08202282	     99.04441172	     94.18986432	    123.91052953	      4.07439963	     24.36465316	     92.80829860	     86.70417803
      5.21666670	    -41.88623646	     -0.42004509	      2.72893259	      0.24949368	      0.53241910	     -0.01015845	    115.99238739	     -9.45962117	      6.48012076	    103.72550930	      1.81035166	     27.44635534	    -20.77234985	     -7.49999987	    119.65996307	    -14.85997925	      4.97274553	    103.10507638	      1.79952306	     22.75163045	    -10.62408039	     -7.49999987	    -27.33412996	     -2.41115786	     -3.90618350	    122.78002979	      1.67360667	     12.13033954	    100.84578588	     91.49298986	    120.45157787	      3.45961464	     24.82201726	     94.93550641	     84.77995064
      5.23333330	    -43.78717796	     -0.28419257	      2.30710345	      0.25847968	      0.55009750	     -0.01116352	    115.45130392	     -9.77064838	      6.07547187	    101.19930799	      1.76626113	     27.29996712	    -19.73916044	     -7.49999987	    119.20431643	    -15.12117296	      3.94848882	    101.22804970	      1.76676276	     22.51577948	    -11.34378008	     -7.49999987	    -23.98725992	     -2.20996883	     -3.40642756	    118.71816148	      1.53188223	     13.24564040	    101.61462593	     95.42580317	    115.92708153	      2.80658641	     24.44189940	     97.68557696	     88.61132714
      5.25000000	    -44.70714522	      0.13032542	      2.25725423	      0.26017611	      0.55728290	     -0.01342592	    114.31834973	    -10.42138017	      6.05479526	     99.05270363	      1.72879581	     27.69103956	    -18.38161579	     -7.49999987	    117.61582385	    -15.02977915	      2.76742812	     99.30334543	      1.73317034	     22.97625831	    -11.76895372	     -7.49999987	    -21.74859179	     -2.16208783	     -3.32400529	    116.73718245	      1.36987959	     13.69910816	     98.68657987	     95.17660921	    112.64928860	      1.86844389	     23.92816138	     98.04918008	     88.88175648
      5.26666670	    -44.90452109	      0.78270813	      2.58393809	      0.25717832	      0.57284268	     -0.01134104	    112.54638806	    -11.09839691	      6.26781474	     96.46151403	      1.68357102	     27.82426941	    -17.18236064	     -7.49999987	    115.10238887	    -14.59758115	      1.16182368	     96.76686264	      1.68890036	     22.63930433	    -12.83719491	     -7.49999987	    -20.71550496	     -2.68584127	     -2.72721935	    115.51143478	      0.20033316	     13.90605091	     95.46563420	     94.81956477	    109.95519653	      1.69861763	     22.89095280	     96.91703265	     88.57996883
      5.28333330	    -45.02211221	      1.33735532	      2.80694516	      0.26155157	      0.59141715	     -0.01398075	    110.71573120	    -11.69363961	      6.37898306	     94.15909223	      1.64338618	     28.02625474	    -15.65379950	     -7.49999987	    112.28741563	    -14.06189188	     -0.19129505	     93.78785062	      1.63690679	     22.07290791	    -14.24367322	     -7.49999987	    -19.84680457	     -2.80233825	     -2.29968607	    113.52626072	     -0.76798706	     14.87678329	     93.13520701	     91.20409296	    106.83251049	      0.98219981	     21.55716160	     96.67831099	     85.33632201
      5.30000000	    -44.74364289	      1.85140936	      3.08201988	      0.26657994	      0.60766282	     -0.01103116	    108.45329404	    -12.08834083	      6.32700196	     91.81456270	      1.60246642	     28.02753787	    -14.54523266	     -7.49999987	    109.11833464	    -13.61440443	     -1.41865373	     90.77703734	      1.58435819	     21.50760252	    -15.52616639	     -7.49999987	    -19.18953424	     -2.95473223	     -1.74704184	    109.76435830	     -1.59033631	     16.03715302	     91.81359710	     91.18796042	    101.55070341	      1.20857345	     19.09304061	     96.10978465	     85.26315062
